<?xml version="1.0" standalone="no"?>
<svg viewBox="0 0 200 200" xmlns="http://www.w3.org/2000/svg">
  <path fill="#FF0066" d="M9.6,-15.5C11.2,-15.6,10.6,-10.7,19.4,-7.2C28.1,-3.8,46.4,-1.9,50.1,2.1C53.7,6.2,42.9,12.3,40.2,26.3C37.5,40.3,42.9,62,37.6,58.9C32.2,55.9,16.1,28,1,26.3C-14.2,24.6,-28.3,49.1,-33.5,52C-38.6,55,-34.7,36.4,-40.9,24.1C-47,11.9,-63.2,5.9,-67.1,-2.2C-70.9,-10.4,-62.4,-20.8,-56.4,-33.3C-50.4,-45.8,-46.9,-60.5,-37.9,-56.2C-29,-51.9,-14.5,-28.5,-5.3,-19.4C4,-10.3,7.9,-15.4,9.6,-15.5Z" transform="translate(100 100)" />
</svg>
