<?xml version="1.0" standalone="no"?>
<svg viewBox="0 0 200 200" xmlns="http://www.w3.org/2000/svg">
  <path fill="#FF0066" d="M22.4,-49.3C25.5,-37,22,-23.8,27.2,-15.5C32.4,-7.1,46.4,-3.5,50,2.1C53.6,7.7,46.9,15.5,43.5,27C40.1,38.5,40,53.9,33.4,64.5C26.7,75,13.3,80.7,2.4,76.5C-8.5,72.4,-17,58.3,-19.8,45.5C-22.6,32.7,-19.6,21.2,-23.9,13.8C-28.2,6.4,-39.8,3.2,-50.5,-6.2C-61.1,-15.5,-70.9,-31,-67.5,-40C-64.1,-49,-47.6,-51.4,-34.1,-57.7C-20.7,-63.9,-10.4,-74,-0.3,-73.4C9.7,-72.8,19.3,-61.5,22.4,-49.3Z" transform="translate(100 100)" />
</svg>
